/* XPM */
static char *_cb25fd8c52e460edb0215088a2056e5slWoHi7bkDFXotvB[] = {
/* columns rows colors chars-per-pixel */
"40 40 142 2 ",
"   c #020102",
".  c #0A0001",
"X  c #000A00",
"o  c #080208",
"O  c #080E08",
"+  c #140000",
"@  c #180000",
"#  c #0A1409",
"$  c #171518",
"%  c #1F1A1F",
"&  c #240202",
"*  c #2D0101",
"=  c #310201",
"-  c #3B0808",
";  c #241C25",
":  c #281F2A",
">  c #232026",
",  c #25232A",
"<  c #2A232D",
"1  c #450D04",
"2  c #4D0C06",
"3  c #580C06",
"4  c #56120D",
"5  c #760D00",
"6  c #7C0D02",
"7  c #7A0E09",
"8  c #621C0F",
"9  c #741307",
"0  c #741209",
"q  c #6B1515",
"w  c #6C1B11",
"e  c #7C1610",
"r  c #642018",
"t  c #792C24",
"y  c #31632B",
"u  c #533D50",
"i  c #534059",
"p  c #5D4D62",
"a  c #664C71",
"s  c #684E74",
"d  c #6B5276",
"f  c #6F5579",
"g  c #71577B",
"h  c #755B7E",
"j  c #785F7E",
"k  c #79607F",
"l  c #820D02",
"z  c #960F05",
"x  c #961307",
"c  c #9D1407",
"v  c #A41707",
"b  c #AF1704",
"n  c #A71A01",
"m  c #AE1308",
"M  c #A41E0C",
"N  c #A91A0A",
"B  c #B21602",
"V  c #BC1603",
"C  c #BF1A03",
"Z  c #B2140C",
"A  c #962311",
"S  c #C70F03",
"D  c #C51101",
"F  c #CB1701",
"G  c #C51A02",
"H  c #CD1A02",
"J  c #D11702",
"K  c #D11900",
"L  c #D31308",
"P  c #D72610",
"I  c #D82B12",
"U  c #DD391F",
"Y  c #E02D16",
"T  c #DE3622",
"R  c #DE3923",
"E  c #DE3C29",
"W  c #E23621",
"Q  c #E13D26",
"!  c #DF4829",
"~  c #E24827",
"^  c #E1452B",
"/  c #E84428",
"(  c #E64B2E",
")  c #EA4D2D",
"_  c #E9512E",
"`  c #E74D32",
"'  c #EA4D35",
"]  c #EE4A3D",
"[  c #E75331",
"{  c #EA5033",
"}  c #EB543A",
"|  c #F05038",
" . c #D95744",
".. c #F24E41",
"X. c #F64E4A",
"o. c #FD4B4B",
"O. c #EF5344",
"+. c #EE5945",
"@. c #F35142",
"#. c #F25B41",
"$. c #FA5C4D",
"%. c #F66C4F",
"&. c #FE6A49",
"*. c #FD6351",
"=. c #F56E52",
"-. c #FC6A53",
";. c #EF7050",
":. c #39922C",
">. c #4AAD39",
",. c #44D02A",
"<. c #50E63B",
"1. c #5FD14C",
"2. c #5AE343",
"3. c #6FF85B",
"4. c #78FD65",
"5. c #F48367",
"6. c #FE8365",
"7. c #F4856B",
"8. c #FD846A",
"9. c #F38574",
"0. c #85F37A",
"q. c #775D80",
"w. c #785E81",
"e. c #7C6385",
"r. c #7F6588",
"t. c #806686",
"y. c #816887",
"u. c #806689",
"i. c #836A8C",
"p. c #886F8F",
"a. c #8A718F",
"s. c #FEAA9F",
"d. c #E9AFA8",
"f. c #F7ACA4",
"g. c #FBAAA4",
"h. c #F0ACAB",
"j. c #FEAAAB",
"k. c #A3FB8B",
"l. c #A4F494",
"z. c #FECDCA",
"x. c #FFCDCD",
"c. c #FFFDF7",
/* pixels */
"i.u.i.i.i.i.i.i.r.i.r.u.r.e.e.u.u.e.e.h h w.r.e.w.e.i.u.i.u.r.r.u.r.r.r.e.e.h h ",
"i.u.i.i.i.i.i.i.e.u.i.u.e.e.e.u.i.e.w.g h w.e.e.g e.i.i.i.u.r.e.u.u.r.e.e.e.h h ",
"i.u.u.u.i.i.i.i.r.u.i.u.e.e.w.u.u.w.q.g h w.w.w.d e.u.u.u.e.u.e.r.r.u.r.e.e.w.q.",
"i.t.e.u.i.i.i.i.u.i.i.e.e.e.w.r.e.q.q.h h h q.f a e.r.u.i.e.e.w.e.u.u.u.r.e.w.w.",
"i.e.e.u.i.i.i.i.u.i.i.e.e.e.e.u.u.w.q.h q.h h g s e.u.r.i.e.q.q.e.u.r.u.r.e.e.w.",
"t.e.e.u.i.i.i.i.u.u.i.e.e.e.      g q.h h g g w.d e.i.r.u.e.h w.u.u.e.r.e.e.e.q.",
"u.u.r.r.i.i.i.i.e.u.i.e.e.u.o l.k.# i h h g g r.g w.u.r.i.w.h e.u.i.u.r.e.w.e.h ",
"u.u.e.e.i.i.i.i.e.u.i.w.e.i.  l.3.4.y $ h f f u.e.e.u.e.u.e.q.e.u.r.i.r.e.e.e.e.",
"r.u.e.u.u.i.i.i.e.r.e.w.e.i.e.  0.2.<.>.  f f u.  e.u.w.e.w.w.e.u.e.i.t.e.e.e.e.",
"e.u.e.r.e.u.u.u.e.e.e.w.e.i.e.w.  1.,.:.  g h   e.e.u.e.e.q.w.u.e.e.i.y.e.e.e.e.",
"e.u.e.e.e.u.r.i.e.e.e.w.w.u.e.e.i.O X X   g   i.e.e.u.e.e.w.q.r.e.e.i.y.e.e.e.e.",
"u.u.e.r.u.i.u.u.e.e.e.w.e.r.e.e.r.i.e.e.e.  e.i.e.e.u.e.e.e.w.e.e.r.i.i.e.e.e.e.",
"u.e.e.e.u.r.u.u.e.h h w.e.e.w.> , < : , ; o , < , e.u.e.e.u.e.e.e.e.i.i.e.e.e.e.",
"u.r.e.e.u.e.e.u.e.h h w.e.e.p 2 2 2 2 - . 1 3 3 r p u.w.e.u.u.u.e.e.i.y.e.e.e.e.",
"u.u.e.w.e.e.e.e.e.h q.e.e.e.+ Z c M N e + b G G  .& e.w.e.r.u.r.e.u.i.y.e.q.e.e.",
"r.u.e.w.e.e.e.r.e.h q.e.e.. l B & 8 7 4 + 7 9 N . ) @ e.e.e.e.e.e.e.i.t.e.q.e.e.",
"e.u.u.e.e.e.w.r.e.h q.e.. 6 B D L = . . . .   . _ ) _ + h w.e.e.e.e.t.u.e.w.e.e.",
"e.u.e.e.e.e.w.u.e.h e.. 6 b D H H W ^ ` { ' -.-.-.-.[ _ + g h h w.e.e.u.e.w.e.e.",
"e.e.e.e.e.e.w.u.u.w.  6 B D H J R ` { } -.-.8.6.8.&.o.{ . h h h f e.e.e.e.h e.e.",
"e.u.e.r.u.e.e.i.u.w.  6 B D K R ' ' #.=.6.7.g.g.f.6.-.*._ @ h h f e.e.r.e.h e.e.",
"e.u.e.e.r.e.e.u.r.q.  6 B D H R ' @.$.-.5.g.x.z.g.8.6.-.' + w.w.h e.e.e.e.h j e.",
"e.e.w.e.e.e.e.e.e.w.  6 B D H R ' @.$.-.5.j.j.c.z.s.8.-.' + e.e.e.e.e.e.e.k e.i.",
"w.e.q.e.e.e.e.e.e.w.  6 B D H R ' @.$.-.6.5.j.d.z.f.6.-.' + w.e.e.e.e.e.e.k e.i.",
"e.e.e.e.w.e.e.e.e.h   6 B D H R ' ' ..+.;.8.9.9.h.g.8.-.' + w.e.e.k e.e.e.k e.i.",
"e.w.e.w.w.e.r.e.e.g . l B D K R R ( ' ] O.=.%.8.9.7.8.-.' + e.e.e.e.e.e.e.k e.i.",
"r.e.q.q.e.r.u.r.e.g d * b D K H T Q ! ` ' @.@.-.-.=.=.@.' + e.e.e.e.e.e.e.e.e.i.",
"r.w.h w.r.r.u.r.w.g h   z V F K P T E ^ ' ..X.#.#.#.#.| t u u.e.e.e.e.e.e.e.w.i.",
"r.q.h w.e.u.u.e.w.g w.% 4 v V F F Y T E ( ' ..` ` ` / ~ . i.r.e.e.e.e.e.e.e.w.i.",
"e.q.w.e.r.u.i.e.q.g q.h   q N C J H I W Q ) { ` W U H A . u.e.e.e.e.u.e.e.e.w.i.",
"e.e.w.e.u.u.i.e.w.w.q.h e.  0 n G F H H J H E T H F M   r.r.e.r.w.e.u.e.e.e.w.u.",
"e.e.e.r.i.u.u.r.e.e.w.q.e.e.  0 n b V S D H K H H Z   i.u.u.e.e.h e.u.u.w.e.w.e.",
"e.e.r.u.i.u.i.u.e.e.w.q.e.r.e.  w 5 x B B B B b m   e.i.u.r.e.e.h w.u.u.q.w.w.e.",
"u.r.e.u.i.u.i.u.e.e.h q.u.u.e.e.                  i.e.u.u.e.e.e.h h u.u.e.w.w.e.",
"i.u.r.u.u.e.i.r.e.e.h w.u.r.e.e.e.q.e.e.i.i.i.a.a.i.e.u.i.e.e.e.q.q.u.i.r.w.w.e.",
"i.i.i.i.i.e.i.e.e.r.e.e.r.r.e.e.e.q.e.r.i.i.i.i.a.i.e.e.r.e.r.e.q.e.u.i.r.e.w.w.",
"i.i.i.i.u.e.i.r.e.r.r.e.u.u.e.e.e.w.e.u.i.i.i.i.a.i.u.e.r.e.u.e.w.e.u.i.e.e.w.h ",
"i.i.i.u.r.u.i.u.e.r.u.e.i.e.e.e.e.e.e.e.i.i.i.i.p.p.e.e.u.r.i.r.w.e.r.i.e.e.q.w.",
"i.i.i.i.r.i.i.u.e.u.u.r.u.e.e.e.r.r.e.e.u.i.i.i.i.p.e.e.i.u.i.u.e.w.r.i.w.e.e.e.",
"i.i.i.i.u.i.i.r.e.r.u.u.r.e.e.e.u.u.e.e.i.i.i.t.i.i.e.e.i.i.i.u.w.e.e.e.w.e.u.e.",
"i.i.i.i.r.u.i.u.e.e.i.u.r.e.e.e.u.e.w.e.i.i.i.t.i.i.e.e.i.i.i.e.q.w.w.e.e.u.u.e."
};
