/* XPM */
static char *dd6e441d741f4d84ecca555c8b779065ypnFWWQYmBbU5uaw[] = {
/* columns rows colors chars-per-pixel */
"40 40 171 2 ",
"   c #010201",
".  c #0C0001",
"X  c #010801",
"o  c #0E080D",
"O  c #130000",
"+  c #1C0101",
"@  c #16040D",
"#  c #0C100F",
"$  c #0D0F10",
"%  c #120E13",
"&  c #0D1112",
"*  c #121116",
"=  c #250000",
"-  c #2A0302",
";  c #300302",
":  c #0E012D",
">  c #10032D",
",  c #1A1429",
"<  c #0F003E",
"1  c #130631",
"2  c #160933",
"3  c #190D35",
"4  c #170938",
"5  c #4C0B09",
"6  c #4B100C",
"7  c #4F1C14",
"8  c #501D15",
"9  c #571C18",
"0  c #740E03",
"q  c #7E0C01",
"w  c #6E160B",
"e  c #76170B",
"r  c #72130C",
"t  c #641813",
"y  c #22471C",
"u  c #100041",
"i  c #19094A",
"p  c #231544",
"a  c #241548",
"s  c #281C4F",
"d  c #271657",
"f  c #2B1E51",
"g  c #3B244E",
"h  c #3E3A4D",
"j  c #312257",
"k  c #35255C",
"l  c #3B2A63",
"z  c #413847",
"x  c #402E67",
"c  c #402E6A",
"v  c #423166",
"b  c #44326C",
"n  c #493774",
"m  c #4E3A77",
"M  c #533F7D",
"N  c #5A4760",
"B  c #5F4B6C",
"V  c #5F4D76",
"C  c #5C4D7C",
"Z  c #604E6F",
"A  c #614F70",
"S  c #655272",
"D  c #6C5577",
"F  c #615B75",
"G  c #64537A",
"H  c #6B5779",
"J  c #655C79",
"K  c #6E5878",
"L  c #745C7D",
"P  c #785F7E",
"I  c #74607C",
"U  c #79607F",
"Y  c #8C0701",
"T  c #800901",
"R  c #980E03",
"E  c #84160B",
"W  c #991709",
"Q  c #871E12",
"!  c #9C1F10",
"~  c #A31606",
"^  c #AD1604",
"/  c #AB1A02",
"(  c #B31501",
")  c #BB1403",
"_  c #BF1802",
"`  c #AA1A12",
"'  c #9B392A",
"]  c #A93E2B",
"[  c #C51201",
"{  c #CD1701",
"}  c #C51A01",
"|  c #CD1902",
" . c #D21604",
".. c #D01801",
"X. c #D01F08",
"o. c #D92911",
"O. c #CF3117",
"+. c #DC341B",
"@. c #E1311D",
"#. c #DD3522",
"$. c #DD3923",
"%. c #DF3A28",
"&. c #E03625",
"*. c #E13922",
"=. c #DD4027",
"-. c #E1442B",
";. c #E44B2E",
":. c #E94A2B",
">. c #EA522C",
",. c #E64D33",
"<. c #EA4E34",
"1. c #E74F38",
"2. c #EE4D3B",
"3. c #F24C3D",
"4. c #E75133",
"5. c #EA5134",
"6. c #EA543A",
"7. c #EF4E40",
"8. c #F84D48",
"9. c #EF5946",
"0. c #F25143",
"q. c #FC5F4F",
"w. c #EE6F4F",
"e. c #F86145",
"r. c #FC694E",
"t. c #FF6655",
"y. c #F66C51",
"u. c #FB6B54",
"i. c #F57155",
"p. c #FF7F67",
"a. c #358B29",
"s. c #48A338",
"d. c #40CA26",
"f. c #54E43D",
"g. c #64E150",
"h. c #6CF956",
"j. c #78FD66",
"k. c #F38567",
"l. c #FE8465",
"z. c #F5846A",
"x. c #FD846A",
"c. c #F58672",
"v. c #FB8572",
"b. c #80F772",
"n. c #594783",
"m. c #5F4D81",
"M. c #5D498A",
"N. c #604E82",
"B. c #614D8E",
"V. c #66538A",
"C. c #785E81",
"Z. c #655092",
"A. c #6A5597",
"S. c #6E5B93",
"D. c #6A5598",
"F. c #705F92",
"G. c #7C6285",
"H. c #7F6588",
"J. c #806686",
"K. c #816887",
"L. c #806689",
"P. c #836A8C",
"I. c #F7AAA5",
"U. c #FAA9A5",
"Y. c #FEACAA",
"T. c #EFB0A8",
"R. c #97EE88",
"E. c #A3FA8C",
"W. c #A4F690",
"Q. c #FECDCB",
"!. c #FFFDF8",
/* pixels */
"P.L.P.P.P.P.P.P.H.P.H.L.H.G.G.L.L.G.G.L L C.H.G.C.G.P.L.L.L.H.H.L.H.H.H.G.G.L P ",
"P.L.P.P.P.P.P.P.G.L.P.L.G.G.G.L.P.G.C.L L C.G.G.L G.P.P.P.L.H.G.L.L.H.G.G.G.P L ",
"P.L.L.L.P.P.P.P.H.L.P.L.G.G.      C.C.L L C.C.C.D G.L.L.L.G.L.G.H.H.L.H.G.G.C.C.",
"P.J.G.L.P.P.P.P.L.P.P.P P L . W.E.X N D D D D S B P P P G.G.G.C.G.L.L.L.H.G.C.C.",
"P.G.G.L.P.P.P.P.L.P.P.S.A.A.  R.h.j.y , A.A.A.A.A.A.A.A.S.G.C.C.G.L.H.L.H.G.G.C.",
"J.G.G.L.P.P.P.P.L.L.D.p 3 3 3   b.f.f.s.  3 3 3   3 3 3 p A.L C.L.L.G.H.G.G.G.C.",
"L.L.H.H.P.P.P.P.P V.p 3 3 3 3 3   g.d.a.  : :   3 3 3 3 3 p V.L L.P.L.H.G.C.G.P ",
"L.L.G.G.P.P.P.I H v 3 3 3 3 1 1 p         a   p 1 1 3 3 3 3 v G L H.P.H.G.G.G.G.",
"H.L.G.L.L.P.G.H n.3 3 3 3 2 1 1 l b b b b   b l 1 1 2 3 3 3 3 n.H P P.J.G.G.G.G.",
"G.L.G.H.G.L.V.v 3 3 3 3 1 1 l $ & % % # o   & * & l 1 1 3 3 3 3 v V.P.K.G.G.G.G.",
"G.L.G.G.G.D.p 3 3 3 3 : a c h r e e e 6 . w E E ' z c a : 3 3 3 3 p D.K.G.G.G.G.",
"L.L.G.P S.p 3 3 3 3 : j m C ; ( q W W r O ~ ( } ] 9 C m j : 3 3 3 3 p S.L G.G.G.",
"L.G.G.P D.3 3 3 3 1 a m n O T ( = t r 6 O r r ! + 5.- n m a 1 3 3 3 3 D.L G.G.G.",
"L.H.G.L D.3 3 3 2 1 c M.O T ( [  .; O O O O . O 5.>.>.+ M.x 1 2 3 3 3 D.P G.G.G.",
"L.L.G.K D.3 3 1 1 l D.O q / [ | | *.;.<.5.2.u.t.u.t.4.<.+ F.l 1 1 3 3 D.P C.G.G.",
"H.L.G.K D.3 3 1 1 l . q ^ [ { { $.5.5.6.u.u.v.l.x.r.8.4.= s l 1 1 3 3 D.L C.G.G.",
"G.L.L.L D.3 : p l Z.. q ( [ | $.<.<.e.i.l.z.I.U.I.l.u.t.5.9 F l p > 3 D.L C.G.G.",
"G.L.G.L D.3 : a c D.. q ( [ | $.<.0.q.u.k.U.Q.Q.I.x.p.r.1.8 J c a : 3 D.P C.G.G.",
"G.G.G.P D.3 : a c D.. q ( [ | $.<.0.q.u.k.U.Y.!.Q.U.x.r.<.8 J c a : 3 D.L L G.G.",
"G.L.G.P D.3 : a c D.. q ( [ | $.<.0.q.u.l.z.Y.T.Q.I.x.u.<.8 J c a : 3 D.L P G.G.",
"G.L.G.P D.3 : a c D.. q ^ [ | $.<.<.7.9.w.x.c.v.T.Y.x.u.<.8 J c a : 3 D.P P P G.",
"G.G.C.L D.3 : a c D.O T ( [ | $.$.<.<.2.0.y.y.x.c.z.x.r.,.8 J c a : 3 D.P U G.P.",
"C.G.C.L D.3 : a c D.u = / [ ..| $.$.;.<.<.0.0.u.u.y.u.0.<.7 J c a : 3 A.P U G.P.",
"G.G.G.L D.3 : a c D.u . Y ) [ | X.*.$.=.<.3.8.6.6.6.6.<.5 g S.c a : 3 A.L U G.P.",
"G.C.G.L D.3 : a c D.u , 5 R ) { { o.#.%.-.<.7.<.-.-.+.O.+ f D.c p : 3 D.L U G.P.",
"H.G.C.K D.3 3 1 1 l u u o t ~ _ ..| o.+.+.:.;.,.@.+.} Q @ s l 1 1 3 3 D.P G.G.P.",
"H.C.L L D.3 3 1 1 l B.i < . r / } } | | ..| %.&.| | ! . i B.l 1 1 3 3 D.P G.C.P.",
"H.C.L L D.3 3 2 2 a M c d <   0 / / ) [ [ | ..} } ` . d c M a 2 2 3 3 D.L G.C.P.",
"G.C.C.L D.3 3 3 3 : k B.c i u   w 0 W ^ ^ ^ ^ ~ ^   i c B.k : 3 3 3 3 D.L G.C.P.",
"G.G.C.P D.3 3 3 3 3 : k M B.u u                   u B.M k : 3 3 3 3 3 D.L G.C.L.",
"G.G.G.H.P.D.p 3 3 3 3 : a c D.D.i u u u u u u i D.D.c a : 3 3 3 3 p D.L.C.G.C.G.",
"G.G.H.L.P.P N.l 3 3 3 3 2 4 c c M.B.B.B.B.B.B.M.c c 4 2 3 3 3 3 l m.P L.C.C.C.G.",
"L.H.G.L.P.L.H G l 3 3 3 2 2 a a m M M M M M M m a a 2 2 3 3 3 l V S L.L.G.C.C.G.",
"P.L.H.L.L.G.P.H m.p 3 3 3 3 : : j k k k k k k j : : 3 3 3 3 p m.S C.L.P.H.C.C.G.",
"P.P.P.P.P.G.P.G.L D.3 3 3 3 3 3 : : : : : : : : 3 3 3 3 3 3 D.L C.G.L.P.H.G.C.C.",
"P.P.P.P.L.G.P.H.G.H.D.p 3 3 3 3 3 3 3 3 3 3 3 3 3 3 3 3 p D.L.G.C.G.L.P.G.G.C.L ",
"P.P.P.L.H.L.P.L.G.H.P V.B.B.B.B.B.B.B.B.B.B.B.B.B.B.B.B.V.P P.H.C.G.H.P.G.G.C.C.",
"P.P.P.P.H.P.P.L.G.L.L.S A Z Z Z A A Z Z A S S S S S B B S L.P.L.G.C.H.P.C.G.G.G.",
"P.P.P.P.L.P.P.H.G.H.L.L.H.G.G.G.L.L.G.G.P.P.P.J.P.P.G.G.P.P.P.L.C.G.G.G.C.G.L.G.",
"P.P.P.P.H.L.P.L.G.G.P.L.H.G.G.G.L.G.C.G.P.P.P.J.P.P.G.G.P.P.P.H.C.C.C.G.G.L.L.G."
};
