/* XPM */
static char *_dc418dfa2b6430ab130bc113610b414ERdprSUAZZwniYAQ[] = {
/* columns rows colors chars-per-pixel */
"40 40 95 2 ",
"   c #000001",
".  c #02000A",
"X  c #080121",
"o  c #0E022D",
"O  c #10032D",
"+  c #0C0131",
"@  c #0F013B",
"#  c #0F013E",
"$  c #130731",
"%  c #170A33",
"&  c #170A34",
"*  c #180B35",
"=  c #190D35",
"-  c #170938",
";  c #100041",
":  c #1A0A4B",
">  c #221441",
",  c #221445",
"<  c #241547",
"1  c #231548",
"2  c #241548",
"3  c #271657",
"4  c #312157",
"5  c #312258",
"6  c #35255D",
"7  c #3B2A62",
"8  c #3D2E61",
"9  c #3B2964",
"0  c #392768",
"q  c #402E67",
"w  c #402D69",
"e  c #402E6F",
"r  c #423166",
"t  c #483675",
"y  c #4E3A77",
"u  c #4E3A78",
"i  c #533F7E",
"p  c #5F486A",
"a  c #5F4C6D",
"s  c #5F4D76",
"d  c #604E6F",
"f  c #624F71",
"g  c #625071",
"h  c #675071",
"j  c #665473",
"k  c #675677",
"l  c #6A5075",
"z  c #6A5677",
"x  c #6D5576",
"c  c #61517A",
"v  c #675579",
"b  c #695779",
"n  c #6F5778",
"m  c #6B5979",
"M  c #6F5878",
"N  c #715A7B",
"B  c #735D7A",
"V  c #745E7A",
"C  c #73597D",
"Z  c #755B7E",
"A  c #735C7C",
"S  c #775F7F",
"D  c #785F7E",
"F  c #74607C",
"G  c #79607F",
"H  c #594782",
"J  c #5F4D81",
"K  c #5C498A",
"L  c #604E82",
"P  c #614C8F",
"I  c #66528A",
"U  c #67558A",
"Y  c #775D80",
"T  c #785E81",
"R  c #655192",
"E  c #6A5597",
"W  c #6D5B92",
"Q  c #6A5598",
"!  c #6C5598",
"~  c #7A6282",
"^  c #7C6382",
"/  c #7C6483",
"(  c #7A6184",
")  c #7D6387",
"_  c #7E6485",
"`  c #7F6588",
"'  c #806686",
"]  c #816887",
"[  c #806689",
"{  c #82688B",
"}  c #856B8A",
"|  c #856C8B",
" . c #82698C",
".. c #846B8D",
"X. c #856C8E",
/* pixels */
" .[  ... . ... .`  .` [ ` _ ~ [ [ ) ( Z Z T ` _ T ( ..[ { [ ` ` [ ` ` ` ) ~ Z S ",
" .[ {  .{ { .. .) [  .[ _ ) ~ [ { ) T C Z T ) ) C ( {  . .[ ` _ [ [ ` ) _ ~ S Z ",
"..[ [ [ { { { { ` [ ..[ ( ~ T [ [ T Y C Z T T T l ) [ [ [ _ [ ) ` ` [ ` ) ( T Y ",
"} ' _ [  .{ ..{ [ { ..S S N M S S x x x x x x h p S S S ~ ( ) T _ [ [ [ ` ( T T ",
"{ _ ) [  .{ ....[ { { W E E E E E E E E E E E E E E E E W ) Y Y _ [ ` [ ` ~ ( T ",
"' _ ) [ { { X...[ [ Q > = = = = = = = = = = = = = = = = > E Z T [ [ _ ` ) ~ ( Y ",
"[ [ ` `  .{ X.| S I > = = = = = o o o o o o o o = = = = = > I N [  .[ ` ) T ( Y ",
"[ [ ) _ { { X.F k r = = = = $ $ , < < < < < < , $ $ = = = = r v B ` { ` ) ~ ) ( ",
"` [ ) [ [ { ~ b H = = = = % $ $ 7 w w w w w w 7 $ $ & = = = = H b S { ' ~ _ _ ) ",
"_ [ _ ` _ [ I r = = = = $ $ 7 7 R Q Q Q Q Q Q R 7 7 $ $ = = = = r I { ] ^ ) ) _ ",
"_ [ _ _ ) Q > = = = = o < w Q Q : ; ; ; ; ; ; : Q Q w 2 o = = = = > ! ] ~ ~ ( ) ",
"[ [ ) S W > = = = = o 5 u K : : ; ; ; ; ; ; ; ; : : K u 4 o = = = = > W V ) ~ ~ ",
"[ ) ( S Q = = = = $ < y t 0 ; X X X X X X X X X X ; 0 t u 2 $ = = = = Q B ) ~ ) ",
"[ ` ) N Q = = = % $ w K 0 ; @                     @ ; 0 K q $ % = = = Q S ) ~ ) ",
"[ [ ) M Q = = $ $ 7 Q : ; @                         @ ; : Q 7 $ $ = = Q S T ~ ) ",
"` [ _ M Q = = $ $ 7 ; ; X                             X ; ; 9 $ $ = = Q N T ( ( ",
") [ [ N Q = o , 7 R ; ; X                             X ; ; R 7 , O = Q N T ~ ~ ",
") [ ) N Q = o < w Q ; ; X                             X ; ; Q w < o = Q S T ( ) ",
") _ ~ S Q = o < w Q ; ; X                             X ; ; Q w < o = Q N Z ) ( ",
") [ ) S Q = o < w Q ; ; X                             X ; ; Q w < o = Q N S ( ~ ",
"( [ ) S Q = o < w Q ; ; X                             X ; ; Q w < o = Q S S D _ ",
") ) T N Q = o < w Q ; ; X                             X ; ; Q w < o = Q S G ~ { ",
"T ) Y C Q = o < w Q ; ; X                             X ; ; Q w < o = Q S G ~ } ",
"~ ~ ~ C Q = o < w Q ; ; X                             X ; ; Q w < o = Q V G / | ",
"_ T ~ N Q = o < w Q ; ; X                             X ; ; Q w , o = Q V G _ | ",
"` ~ Y n Q = = $ $ 7 ; ; X                             X ; ; 7 $ $ = = Q S ~ ~ X.",
"` T Z N Q = = $ $ 7 P : # +                         + # : P 9 $ $ = = Q S ~ T X.",
"` Y Z N Q = = % % 2 i e 3 # X                     X # 3 e i 2 & % = = Q N ~ T ..",
") Y T N Q = = = = o 6 P e : ; . . . . . . . . . . ; : e P 6 o * = = = Q N ( T  .",
") ~ T S Q = = = = = o 6 i P ; ; ; ; ; ; ; ; ; ; ; ; P i 6 o = = = = = Q N ( T [ ",
"( ) ) `  .Q > = = = = o 2 w Q Q : ; ; ; ; ; ; : Q Q w 1 o = = = = > ! [ T ~ T ) ",
") ) ` [ ..S L 8 = = = = % - w w K P P P P P P K w w - & * = = = 8 J S [ Y T T ) ",
"[ ` ) [  .[ m c 8 = = = % % < 2 y i i i i i i u < < % % = = = 8 s h [ [ ( T T ) ",
"..[ ` [ [ )  .z J > = = = = o o 5 6 6 6 6 6 6 4 o o * = = = > J h Y [ { ` T T ) ",
".. .{  .{ )  ._ C Q = = = = = = o o o o o o o o = = = = = = Q A Y ~ [ ..` ( T T ",
".... . .[ _  .` ) ` Q > = = = = = = = = = = = = = = = = > Q [ _ T ( [ X._ ) T Z ",
".... .[ ` [  .[ ) ` S U P P P P P P P P P P P P P P P P U S  .` T ~ ` ..( ( Y T ",
" . . .{ ` { { [ ) [ [ h f d d d f f d d f h h g h j a a j [ ..[ ~ T ` { T ( ( ) ",
" . . . .[ { { ` ) ` [ [ ` ) ( ) [ [ _ _  .X.X.' } | ~ ^ { { ..[ T ~ ~ _ T ) [ _ ",
"...... .` [ { [ ) ) { [ ` _ ( ) [ _ T _ ..X.X.' } X.^ ~ { {  .` Y T T ~ ( [ [ _ "
};
