/* XPM */
static char *_df099ad7d324cb0e616170f5f07c926iz5wV6KiJUMuGwdW[] = {
/* columns rows colors chars-per-pixel */
"40 40 153 2 ",
"   c #010101",
".  c #090200",
"X  c #080905",
"o  c #080509",
"O  c #0C0A0B",
"+  c #160900",
"@  c #0E0D12",
"#  c #100F13",
"$  c #131214",
"%  c #1B1911",
"&  c #171719",
"*  c #1B171C",
"=  c #1C191C",
"-  c #231C14",
";  c #231E1D",
":  c #291F19",
">  c #292214",
",  c #23201F",
"<  c #080121",
"1  c #0E012D",
"2  c #1D1B21",
"3  c #130631",
"4  c #160933",
"5  c #190D35",
"6  c #1F1537",
"7  c #251D22",
"8  c #271E33",
"9  c #201638",
"0  c #271D3D",
"q  c #281F3E",
"w  c #222022",
"e  c #242129",
"r  c #3A3A3A",
"t  c #54193D",
"y  c #442126",
"u  c #47202A",
"i  c #5E252B",
"p  c #602328",
"a  c #524530",
"s  c #100041",
"d  c #19094A",
"f  c #241545",
"g  c #251548",
"h  c #292140",
"j  c #302548",
"k  c #3A324D",
"l  c #35255D",
"z  c #3C2B62",
"x  c #5B1545",
"c  c #57164A",
"v  c #5A154B",
"b  c #402E69",
"n  c #423166",
"m  c #533F7E",
"M  c #4D464E",
"N  c #52434D",
"B  c #534757",
"V  c #544B56",
"C  c #706953",
"Z  c #4A4262",
"A  c #5F4D6D",
"S  c #5F4D76",
"D  c #604E6F",
"F  c #614F70",
"G  c #655372",
"H  c #6A5677",
"J  c #61517A",
"K  c #6B5779",
"L  c #6E5878",
"P  c #745C7C",
"I  c #785F7E",
"U  c #74607C",
"Y  c #79607F",
"T  c #A09A77",
"R  c #5F4D81",
"E  c #604E82",
"W  c #614D8E",
"Q  c #67548A",
"!  c #775D80",
"~  c #785E81",
"^  c #6E5B92",
"/  c #6A5598",
"(  c #7C6285",
")  c #7F6588",
"_  c #806686",
"`  c #816887",
"'  c #806689",
"]  c #83698C",
"[  c #BAB7BD",
"{  c #C9979B",
"}  c #C7AE89",
"|  c #C9B384",
" . c #C7B28E",
".. c #CDA092",
"X. c #D0A391",
"o. c #CEBA9A",
"O. c #C794A6",
"+. c #CCBAA0",
"@. c #E4BFBB",
"#. c #EBC586",
"$. c #E5C68B",
"%. c #E9C68B",
"&. c #E9C889",
"*. c #E2C492",
"=. c #EBCC94",
"-. c #EECE99",
";. c #ECD29F",
":. c #F1D29E",
">. c #CDCAA9",
",. c #D2CEB3",
"<. c #D6C7BA",
"1. c #DEC2B8",
"2. c #D6D4B6",
"3. c #DBD6B4",
"4. c #DCD8B4",
"5. c #DBD5BB",
"6. c #DCD8BE",
"7. c #EECEA6",
"8. c #E3C2AF",
"9. c #EDD1A1",
"0. c #F1D0A1",
"q. c #E6C2B4",
"w. c #E9C6B3",
"e. c #E0C1BD",
"r. c #C2B9CE",
"t. c #CAC4CE",
"y. c #CBC7D0",
"u. c #D2C5D3",
"i. c #D6CEDB",
"p. c #D4D4D4",
"a. c #D6D1DB",
"s. c #DAD4DB",
"d. c #DBDBDB",
"f. c gainsboro",
"g. c #DEDDDD",
"h. c #E3C1C0",
"j. c #E1CED0",
"k. c #DEE0DB",
"l. c #DBDAE0",
"z. c #E4E3E4",
"x. c #EBECE7",
"c. c #E6E4E9",
"v. c gray91",
"b. c #EAEAEA",
"n. c #ECECEC",
"m. c gray93",
"M. c #F1EBEA",
"N. c #EAE7F1",
"B. c #F0E9F2",
"V. c #F1F1F1",
"C. c #F6F6F6",
"Z. c #F7F6F8",
"A. c #FDFDFD",
/* pixels */
"] ' ] ] ] ] ] ] ) ] ) ' )                             ' ] ' ) ) ' ) ) ) ( ( P I ",
"] ' ] ] ] ] ] ] ( B 2     b.b.b.b.b.b.b.b.b.b.b.b.b.n.      ) ( ' ' ) ( ( ( I P ",
"] ' ' ' ] ] ] ] )   f.Z.C.n.n.n.n.n.n.n.n.n.n.n.n.n.n.C.C.C.  ( ) ) ' ) ( ( ~ ! ",
"] _ ( ' ] ] ] ] '   p.n.n.n.b.n.n.n.n.n.n.n.n.n.n.n.n.n.n.n.  ~ ( ' ' ' ) ( ~ ~ ",
"] ( ( ' ] ] ] ] '   p.n.n.n.A.A.n.n.n.b.n.n.n.n.n.A.n.n.n.b.  ! ( ' ) ' ) ( ( ~ ",
"_ ( ( ' ] ] ] ]   n.n.n.n.n.n.n.b.A.A.V.n.A.A.b.n.n.n.n.n.n.n.  ' ' ( ) ( ( ( ! ",
"' ' ) ) ] ] ] ]   n.n.n.n.n.n.n.n.n.n.n.n.n.n.n.n.n.n.n.n.n.n.  ' ] ' ) ( ~ ( I ",
"' ' ( ( ] ] ] U   b.n.n.n.n.n.n.n.n.n.n.n.n.n.n.n.n.n.n.n.n.b.  P ) ] ) ( ( ( ( ",
") ' ( ' ' ] ( K   f.b.n.n.n.n.n.n.n.n.n.n.n.n.n.n.n.n.n.n.b.d.  K I ] _ ( ( ( ( ",
"( ' ( ) ( ' Q n   f.f.f.n.n.n.n.n.n.n.n.n.n.n.n.n.n.n.n.b.f.d.  n Q ] ` ( ( ( ( ",
"( ' ( ( ( / j   d.d.f.f.f.f.f.f.f.f.f.f.f.f.f.f.f.f.f.f.f.f.f.f.    / ` ( ( ( ( ",
"' ' ( I ^ f q   f.f.r w w w w w w w w w w w w w w w w w w w f.f.    f ^ P ( ( ( ",
"' ( ( I / 5 0   f.d.=                                     o f.f.    5 / P ( ( ( ",
"' ) ( P / 5 0   f.  & = = = = =     = = = =       = = = = =   f.    5 / I ( ( ( ",
"' ' ( L / 5 0   f.  & 2 e     + %.;.  $ 2   0.%.*.    e 2 2   f.    5 / I ! ( ( ",
") ' ( L / 5 0   f.  2 e   &.&.$.;.;.  & e   :.9.:.#.%.. # e   f.    5 / P ! ( ( ",
"( ' ' P / 5 9   f.  2 e   $.}  .+.;.  & e   ;.o.o.| %.  # e   f.    5 / P ~ ( ( ",
"( ' ( P / 5 6   d.  2 e   9.      ;.o $ e   -..     9.  # e   d.    5 / I ~ ( ( ",
"( ( ( I / 5 1 g     2 e   0.      ;.#.a   #.9..   . 9.  # e     g 1 5 / P P ( ( ",
"( ' ( I / 5 1 g b   2 e   9.c x v 9.9.=.#.9.9.t v x 9.  $ e   b g 1 5 / P I ( ( ",
"( ' ( I / 5 1 g b   & 2   w.O.{ X.9.9.-.-.9.9.....O.w.  @ 2   b g 1 5 / I I I ( ",
"( ( ~ P / 5 1 g b   & 2   h.q.8.9.9.9.9.9.9.9.9.7.@.e.  O =   b g 1 5 / I Y ( ] ",
"~ ( ! P / 5 1 g b   = 2 2   9.;.9.9.9.9.9.9.9.9.;.9.  2 = =   b g 1 5 / I Y ( ] ",
"( ( ( P / 5 1 g b / @     =   O 3.B.u.#.#.<.M.5.2.  =       / b g 1 5 / P Y ( ] ",
"( ~ ( P / 5 1 g b / s s <   * >.3.f.x.s.u.n.f.6.3.=   < s s / b g 1 5 / P Y ( ] ",
") ( ! L / 5 5 3 3 z s s <   , - 4.z.b.s.a.n.n.5.,.7   < s s z 3 3 5 5 / I ( ( ] ",
") ~ P P / 5 5 3 3 z W d     w w % f.n.i.i.n.n.% w ;     h W z 3 3 5 5 / I ( ~ ] ",
") ! P P / 5 5 4 4 g m b   = 7 - ; f.n.[ [ c.b.* > w =   k m g 4 4 5 5 / P ( ~ ] ",
"( ! ~ P / 5 5 5 5 1 l W   n.w 7 = f.n.[ [ N.x.* ; w n.  Z l 1 5 5 5 5 / P ( ~ ] ",
"( ( ~ I / 5 5 5 5 5 1 l   1.7 ; = f.n.y.t.n.b.* C w e.  k 1 5 5 5 5 5 / P ( ~ ' ",
"( ( ( ) ] / f 5 5 5 5 1   %.: - - f.n.a.i.n.x.= T 7 #.. 8 5 5 5 5 f / ' ~ ( ~ ( ",
"( ( ) ' ] I E z 5 5 5 5 4   , 7 o k.i.z.b.a.x.X 2 7   4 5 5 5 5 z R I ' ! ~ ~ ( ",
"' ) ( ' ] ' K J z 5 5 5 4   ; =   r.l.n.n.f.u.o   w   4 5 5 5 z S G ' ' ( ~ ~ ( ",
"] ' ) ' ' ( ] H R f 5 5 5   = =   n.& $ $ $ b.    =   5 5 5 f R G ! ' ] ) ~ ~ ( ",
"] ] ] ] ] ( ] ( P / 5 5 5   = =   n.        n.    =   5 5 5 / P ! ( ' ] ) ( ~ ~ ",
"] ] ] ] ' ( ] ) ( ) / f 5   = =   n.  $ =   n.o   =   5 f / ' ( ~ ( ' ] ( ( ~ P ",
"] ] ] ' ) ' ] ' ( ) I Q W 2     o j.        j.X     O W Q I ] ) ~ ( ) ] ( ( ! ~ ",
"] ] ] ] ) ] ] ' ( ' ' G F D D D   i   G F   p . @ G A A G ' ] ' ( ~ ) ] ~ ( ( ( ",
"] ] ] ] ' ] ] ) ( ) ' ' ) ( ( ( M u M ` ] M y N V ] ( ( ] ] ] ' ~ ( ( ( ~ ( ' ( ",
"] ] ] ] ) ' ] ' ( ( ] ' ) ( ( ( '   ~ ( ] ]   _ ] ] ( ( ] ] ] ) ! ~ ~ ( ( ' ' ( "
};
