/* XPM */
static char *b1a366490c374179e1752d60a2038873Xdk8si6GJD737HxN[] = {
/* columns rows colors chars-per-pixel */
"40 40 127 2 ",
"   c #010101",
".  c #090806",
"X  c #000008",
"o  c #0B0A08",
"O  c #0F0E10",
"+  c #141414",
"@  c #181617",
"#  c #1E1A14",
"$  c #16141A",
"%  c #1A171A",
"&  c #1C191D",
"*  c #281F15",
"=  c #221F1D",
"-  c #291E1B",
";  c #2D261E",
":  c #1D1B22",
">  c #231E23",
",  c #222022",
"<  c #282223",
"1  c #242328",
"2  c #353126",
"3  c #3E3525",
"4  c #3A392C",
"5  c #362D37",
"6  c #481F2A",
"7  c #452226",
"8  c #413422",
"9  c #62252A",
"0  c #464237",
"q  c #5A1645",
"w  c #591548",
"e  c #55194E",
"r  c #4D444C",
"t  c #4D4650",
"y  c #6A6453",
"u  c #625668",
"i  c #6F5579",
"p  c #755B7E",
"a  c #785F7E",
"s  c #79607F",
"d  c #989277",
"f  c #775D80",
"g  c #785E81",
"h  c #7C6285",
"j  c #7F6588",
"k  c #806686",
"l  c #816887",
"z  c #806689",
"x  c #83698C",
"c  c #886F8F",
"v  c #8A7691",
"b  c #8C7892",
"n  c #B2AEAD",
"m  c #B1ACB2",
"M  c #BAB7BF",
"N  c #BBB9BE",
"B  c #CC9E94",
"V  c #CA979B",
"C  c #CAB285",
"Z  c #CEBA86",
"A  c #C9B38A",
"S  c #CEA492",
"D  c #CFBA9B",
"F  c #C893A3",
"G  c #C793AA",
"H  c #C5BFA7",
"J  c #CDBAA1",
"K  c #E4BDB7",
"L  c #E5C685",
"P  c #EBC585",
"I  c #E7C58E",
"U  c #EAC68C",
"Y  c #E6C88A",
"T  c #EAC889",
"R  c #EBCC96",
"E  c #EECF9B",
"W  c #EDD19E",
"Q  c #F1D29C",
"!  c #D0CAA9",
"~  c #C9C6B2",
"^  c #DDC0BA",
"/  c #DAD6B4",
"(  c #DCD8B3",
")  c #EFCFA2",
"_  c #E9C4AD",
"`  c #EBCDAA",
"'  c #EDD1A1",
"]  c #E6C3B6",
"[  c #E9C5B1",
"{  c #E1C2BE",
"}  c #C2BCC7",
"|  c #CABED2",
" . c #D3C3C4",
".. c #D1C4CF",
"X. c #CCC6D2",
"o. c #CFC9D3",
"O. c #CFC6D9",
"+. c #D1C6D2",
"@. c #D6CBD0",
"#. c #D5D5D5",
"$. c #D7D1DD",
"%. c #D9D3DE",
"&. c #DBDBDB",
"*. c #DCDCDC",
"=. c #DEDCDC",
"-. c #E4C1C1",
";. c #E2CFD1",
":. c #E0D0D1",
">. c #DBD2E0",
",. c gray88",
"<. c #E3E6E1",
"1. c #E5E4E2",
"2. c #E7E7E7",
"3. c #E9E7E6",
"4. c #E6E7E8",
"5. c gray92",
"6. c #EAECEB",
"7. c #ECEDE8",
"8. c #EAEAED",
"9. c #EFEBEC",
"0. c #ECECEC",
"q. c #EDEDF0",
"w. c #F0EAF1",
"e. c gray95",
"r. c #F6F6F6",
"t. c gray98",
"y. c white",
/* pixels */
"x z x x x x x x j x j z j                             z x z j j z j j j h h p p ",
"x z x x x x x x h p       5.5.5.5.5.5.5.5.5.5.5.5.5.5.      j h z z j h h h p p ",
"x z z z x x x x j   r.r.r.0.0.0.0.0.0.0.0.0.0.0.0.0.2.r.r.y.  h j j z j h h g f ",
"x k h z x x x x z   0.0.0.0.5.5.0.0.0.0.0.0.0.0.0.5.0.0.0.e.  g h z z z j h g g ",
"x h h z x x x x z   0.0.0.0.y.0.5.0.0.0.0.0.5.0.t.y.0.0.0.e.  f h z j z j h h g ",
"k h h z x x x x   0.0.0.0.0.0.0.5.y.y.5.0.y.y.0.0.0.0.0.0.0.5.  z z h j h h h f ",
"z z j j x x x x   0.0.0.0.0.0.0.0.0.0.0.0.0.0.0.0.0.0.0.0.0.0.  z x z j h g h f ",
"z z h h x x x x   2.0.0.0.0.0.0.0.0.0.0.0.0.0.0.0.0.0.0.0.0.5.  z j x j h h h h ",
"j z h z z x x x   *.5.0.0.0.0.0.0.0.0.0.0.0.0.0.0.0.0.0.0.5.*.  z h x k h h h h ",
"h z h j h z z z   *.*.*.0.0.0.0.0.0.0.0.0.0.0.0.0.0.0.0.&.*.*.  h h x l h h h h ",
"h z h h h z j x ,.*.*.&.*.*.*.*.*.*.*.*.*.*.*.*.*.*.*.*.*.*.*.&.h h x l h h h h ",
"z z h j z x z z *.*., , , , , , , , , , , , , , , , , , , , *.*.h j x x h h h h ",
"z h h h z j z z *.#.                                        *.&.h h x x h h h h ",
"z j h h z h h z *.  & & & & & X     : & & &     $ & & & & &   *.h h x l h h h h ",
"z z h g h h h h *.  & : 1     Z L '   : %   ) U 8     1 & &   *.h z x l h f h h ",
"j z h g h h h j *.  1 $   U T W W '   1 :   ' ' T P Y   1 1   *.h h x k h f h h ",
"h z z h h h g j *.  > &   I A D D '   1 :   ' J A C U   1 1   *.h h k z h g h h ",
"h z h h h h g z *.  > &   '       W   1 :   Q       W   1 1   *.g h h z h g h h ",
"h h h h h h g z     > &   W       ' P   * P '       W   1 1     i h h h h p h h ",
"h z h j z h h x z   1 :   ' q q e ' ' U U ' ' w w w ' X 1 1   p i h h j h p h h ",
"h z h h j h h z j   & @   ] F B S ' ' R E ' W B V G [   : &   g p h h j h p a h ",
"h h g h h h h h h   & $   { K ` ' ' ' ' ' ' ' ' _ ] -.  : &   h h h h h h s h x ",
"g h f h h h h h h   & : :   E ' W ' ' ' ' ' ' ' W '   & & &   h h h h h h s h x ",
"h h h h g h h h h p       :   ~ / w. .U P ..9.( 4   &       g h h s h h h s h x ",
"h g h g g h j h h p p g h   # / / *.0.+.@.7.*./ ! &   f h h h h h h h h h s h x ",
"j h f f h j z j h p p p g   = H / 0.0.o.%.0.<.( 0 ,   h h h h h h h h h h h h x ",
"j g p g j j z j g p p b     > , # 5.5.+.$.6.1.# > =     z z z h h h h h h h g x ",
"j f p g h z z h g p g v   & > ; % 5.8.m N 0.1.> # , &   z x j h h h h h h h g x ",
"h f g h j z x h f p f v   0., > = 5.q.n M q.1.& < > 0.  j z h h h h z h h h g x ",
"h h g h z z x h g g f v   ^ > y & 5.0.} X.5.1.& 2 > {   j j h j g h z h h h g z ",
"h h h j x z z j h h g v   P = d & 5.8.X.>.q.1.# 3 - P   z z h h p h z z g h g h ",
"h h j z x z x z h h g g h   , & o 7.$.3.4.$.1.. = >   x z j h h p g z z f g g h ",
"z j h z x z x z h h p f z   ,     O.*.0.0.&.|   + ,   z z h h h p p z z h g g h ",
"x z j z z h x j h h p g z   &     8.@ + + + 5.  + &   z x h h h f f z x j g g h ",
"x x x x x h x h h j h h j   &     0.        0.  + &   h j h j h f h z x j h g g ",
"x x x x z h x j h j j h z   &     0.  & @   5.  + &   h j h z h g h z x h h g p ",
"x x x z j z x z h j z h x O       ;.        :.      > h z h x j g h j x h h f g ",
"x x x x j x x z h z z j z h h 5   9   h x   9   h c h h x z x z h g j x g h h h ",
"x x x x z x x j h j z z j h h u r 6 r h x t 7 r l x h h x x x z g h h h g h z h ",
"x x x x j z x z h h x z j h h h z   g h x x   k x x h h x x x h f g g h h z z h "
};
